<?xml version="1.0" encoding="UTF-8"?>
<!DOCTYPE svg PUBLIC "-//W3C//DTD SVG 1.1//EN" "http://www.w3.org/Graphics/SVG/1.1/DTD/svg11.dtd">
<!-- Creator: CorelDRAW -->
<svg xmlns="http://www.w3.org/2000/svg" xml:space="preserve" width="130mm" height="130mm" version="1.1" style="shape-rendering:geometricPrecision; text-rendering:geometricPrecision; image-rendering:optimizeQuality; fill-rule:evenodd; clip-rule:evenodd"
viewBox="0 0 8466.66 8466.66"
 xmlns:xlink="http://www.w3.org/1999/xlink"
 xmlns:xodm="http://www.corel.com/coreldraw/odm/2003">
 <defs>
  <style type="text/css">
   <![CDATA[
    .str0 {stroke:white;stroke-width:16.93;stroke-miterlimit:22.9256}
    .fil0 {fill:#010101}
    .fil3 {fill:gainsboro}
    .fil1 {fill:#FEFCFC}
    .fil2 {fill:red}
   ]]>
  </style>
 </defs>
 <g id="Camada_x0020_1">
  <metadata id="CorelCorpID_0Corel-Layer"/>
  <g id="_2178235806896">
   <path class="fil0 str0" d="M4365.66 6614.47c-4.48,53.84 -139.3,199.35 -132.03,237.48 4.51,23.6 99.6,26.55 147.73,34.69 196.31,33.22 488.66,63.86 688.3,42.36 57.5,-6.19 119.41,-9.73 176.53,-9.73 0,-168.23 -65.21,-304.93 -153.63,-422.1 -18.57,-24.61 -67.4,-91.42 -74.97,-119.76 139.56,93.45 262.47,362.65 262.47,524.93 149.75,-12.46 161.17,-70.5 161.12,-186.41 -0.09,-214.07 -108.15,-160.31 -215.13,-487.71 -47.61,-145.69 -108.28,-173.72 -123.79,-231.81 24.02,16.09 39.79,35.64 61.42,57.11 12.06,11.97 17.66,16.99 28.85,30.41 22.8,27.34 0.37,21.31 36.73,31.01 0,-174.87 23.11,-294.41 -15.09,-442.11 -12.56,-48.55 -47.95,-137.17 -43.24,-191.35 8.67,-99.79 15.75,-125.2 -26.34,-204.73 -48.98,11.41 -48.33,34.93 -84.66,59.26 45.25,-194.23 143.93,-84.09 143.93,-431.8 -182.78,-122.39 -124.96,-297.9 -285.88,-399.91 -61.3,-38.86 -113.61,-31.43 -188.25,-48.82 56.99,-39.6 174.09,-8.47 245.53,-8.47 20.46,38.68 44.54,90.51 60.33,134.41 50.69,140.96 118.31,253.62 246.65,346.01 227.52,163.81 485.48,-14.75 641.29,-14.75l-279.4 143.93c26.6,114.2 183.44,223.85 297.3,261.5 265.77,87.89 180.49,30.59 402.58,164.68 296.37,178.93 274.85,-446.02 485.45,-587.04 -11.29,48.47 -87.4,157.73 -135.47,364.06 51.68,-27.34 96.32,-58.75 137.47,-99.59 27.24,-27.03 37.79,-25.46 59.23,-59.3 18.48,-29.16 29.15,-49.76 42.92,-84.08 48.18,-120.03 68.09,-256.92 91.77,-399.3 47.5,-285.61 91.51,-446 143.39,-703.27 7.28,-36.07 16.29,-64.93 16.29,-109.94 -125.74,73.12 -154.4,100.2 -347.14,100.86l-10.93 5.98c-1.61,0.8 -9.17,4.44 -11.4,5.52 -13.28,6.46 -17.34,7.02 -27.6,14.72 -12.78,9.6 -3.54,1.08 -16.94,16.93l-68.59 126.14c0,-42.86 -5.75,-43.54 -8.47,-76.2 -42.87,11.45 -30.59,29.9 -62.55,55.99 -20.42,16.66 -48.76,32.32 -71.23,47.3 -112.14,74.76 -206.07,113.45 -215.59,257.66 -3.84,58.26 17.72,141.21 19.17,206.32l-18.58 -32.22c-83.5,-193.88 48.7,-542.54 -173.56,-706.97 -146.09,-108.07 -449.63,-167.16 -475.7,20.55l-26.42 219.11c0,-72.07 -8.89,-123.74 -8.76,-203.49 0.25,-150.53 51.68,-272.6 -39.02,-451.47 -16.78,-33.07 -24.48,-38.12 -43.64,-66.43 -138.68,-204.97 -352.54,-243.81 -602.85,-243.81 10.74,-29.68 83.2,-61.99 110.07,-76.2 -8.02,-30.02 -56.62,-59.86 -110.07,-160.87 59.35,-28.47 56.43,1.63 93.13,-67.73 -46.34,-87.58 -102.83,-101.93 -118.53,-169.33 99.76,66.8 225.57,243.32 370.76,218.58 145.32,-24.76 124.21,-314.66 167.35,-383.2 21.67,-34.43 0.49,-8.01 22.98,-19.36 3.53,-1.79 52.61,-10.06 64.63,-79.35 7.68,-44.32 -4.38,-102.94 -12.84,-137.88 -59.22,-244.59 66.28,-252.4 88.62,-480.56 4.8,-49.07 6.7,-254.27 18.17,-278.16 -34,0.75 -214.75,48.19 -262.47,-16.94 151.22,12.59 270.98,33.3 331.41,-159.67 25.13,-80.27 6.74,-124.48 -38.4,-184.14 -29.99,-39.64 -54.3,-51.3 -118.67,-143.79 -37.05,-53.23 -60.41,-104.21 -104.32,-149.68 -125.87,-130.35 -85.25,-96.12 -224.97,-156.03 -39.63,-17 -36.64,-25.9 -78.77,-27.95l-191.59 0c-46.83,7.37 -84.91,29.37 -129.94,88.22 -131.75,172.21 -253.22,79.68 -333.84,563.62 -23.55,141.36 -29.31,311.07 -61.16,446.84 -7.22,30.75 -21.27,64.9 -31.98,95.02 -61.71,173.59 24.58,174.98 50.9,287.96 -151.53,80.18 -111.61,119.85 -169.34,186.27 -0.67,-30.05 -10.8,-75.31 -16.93,-101.6 -87.56,0 -136.84,39.32 -177.57,101.83 -66.49,102.04 -48.45,147.25 -60.49,218.91 -5.3,31.57 -18.02,26.71 -27.79,65.34 -11.6,45.89 8.71,48.61 -22.02,71.12 -3.52,-42.3 -14.68,-66.15 -42.33,-84.67 -76.54,56.08 -115.01,268.16 -118.55,380.99l-34.28 338.24c-27.06,194.91 -70.71,495.26 -44.22,688.55 5.6,40.79 0.05,83.28 2.28,124.72 3.55,66.07 15.02,168.45 23.07,230.93 34.49,267.7 35.29,357.62 110.69,634.37 47.22,173.35 155.54,456.56 173.75,579.78 12.18,82.34 3.88,150.37 -15.96,226.45l-71.38 182.63c83.58,-19.48 135.34,-121.37 304.8,-135.47 -11.24,9.77 -0.17,3.13 -20.61,13.26 -9.38,4.65 -21.66,8.65 -30.05,12.28 -74.69,32.35 -187.53,106.91 -253.13,161.74 -33.2,27.75 -51.94,54.08 -72.99,96.34 -84.25,169.15 -80.42,401.08 -80.42,588.44 7.07,1.89 205.23,137.78 381,152.4 14.66,-62.91 106.46,-197.83 152.4,-228.6z"/>
   <path class="fil1" d="M2240.53 4184.55l-110.07 270.93c0,-250.59 -173.98,-420.37 -310.43,-714.03 -28.67,-61.71 -49.63,-114.57 -76.59,-177.41 -50.57,-117.91 -33.77,-41.73 -59.31,-194.69 -21.98,-131.64 -31.08,-73.14 50.47,-164.86 208.82,-234.88 96.53,-638.71 -131.1,-677.61 -113.74,-19.43 -196,58.2 -237.95,147.7 -60.33,128.73 -74.82,120.73 -56.47,333.23 3.37,39.11 60.54,110.65 91.66,162.34 43.54,72.32 56.86,86.03 73.06,189.4 23.93,152.69 40.66,295.12 65.19,442.81 75.56,454.89 82.41,431.53 209.34,815.12l138.94 377.52c107.12,269.68 241.6,128.19 361.73,36.22 25.83,-19.79 41.53,-37.29 65.61,-61.39l654.05 -641.35c-7.88,33.83 -22.41,57.23 -25.4,93.14l33.87 8.46c-102.91,0 -166.5,94.24 -256.12,184.15l-224.36 215.9c-38.76,38.76 -71.35,71.28 -110.07,110.07 -85.24,85.38 -96.67,62.37 -96.3,124.5 0.6,101.87 75.29,243.32 128.05,322.11 -9.9,11.39 -18.34,20.81 -24.38,34.89 -28.55,66.66 -9.49,125.94 -9.49,176.78l-25.4 -50.8c-27.13,14.36 -35.96,22.86 -60.61,40.99l-46.48 46.65c-0.68,1.11 -1.79,3.78 -2.97,5.49 -27.96,-104.69 -218.28,-213.14 -366.5,-70.16 -156.73,151.18 -108.53,492.59 48.18,600.15 62.77,43.08 152.99,53.6 218.23,4.92 122.9,-91.69 106.64,-213.27 179.32,-244.01 36.5,-15.43 74.04,-21.07 107.03,-36.9 -2.12,25.44 -12.25,65.63 -15.16,87.13 -7.58,55.97 6.28,52.55 15.16,90.67 -44.24,0.99 -47.89,10.32 -57.98,43.61 -21.46,70.79 -36.38,186.55 -47.19,266.08 -8.6,63.21 -14.01,131.91 -20.59,191.08 -3.65,32.8 1.18,66.32 -2.48,99.12 -3.84,34.49 -7.22,55.93 -7.22,102.84 238.11,-55.47 302.21,9.23 482.98,118.15 228.15,137.46 528.78,294.66 855.01,212.31 108.38,-27.36 95.94,-39.86 106.56,-113.57 18.06,-125.36 -14.55,-274.04 -45.82,-387.96l-51.49 -168.64c-69.67,-209.88 -159.98,-322.89 -295.19,-475.27 -19.54,-22.02 -29.65,-41.46 -52.99,-57.08 -23.6,15.8 -36,33.86 -67.73,42.33 51.96,-98.2 11.62,-175.49 -11.04,-310.69 -17.95,-107.08 -14.36,-236.71 -14.36,-366.64l8.46 0c0,39.5 0.3,79.12 -0.07,118.6 -0.43,46.54 -14.38,95.65 29.96,90.81 77.65,-8.47 213.21,-176.12 259.15,-233.64 40.68,-50.94 68,-92.51 103.28,-150.72 58.99,-97.36 60.14,-334.9 44.38,-439.54 -11.28,-74.9 -5.77,-153.69 -16.93,-228.6l-21.83 -232.17c-50.95,13.6 -79.98,130.53 -102.67,193.66l-59.37 160.76c-4.1,11.28 -3.34,10.4 -9.59,24.28 -1.08,2.4 -4.33,9.3 -5.44,11.49l-9.2 16.2c0.98,-43.83 39.08,-138.34 54,-183.07 21.49,-64.47 42.72,-118.54 59.56,-185.97 16.56,-66.31 33.71,-127.12 46.76,-190.3 78.83,-381.51 45.07,-735.44 -95.37,-1038.07 -66.6,-143.52 -105.48,-201.39 -163.74,-318.85 -59.62,-120.21 -120.89,-204.68 -90.18,-389.37 32.53,-195.67 133.29,-276.14 169.84,-558.29 9.22,-71.24 -16.03,-179.24 10.66,-234.87 41.12,16.6 -0.32,17.54 52.59,74.42 22.85,24.55 46.4,40.3 72.54,62.93 96.42,83.45 79.67,103.9 86.54,235.21 4.86,93.03 30.2,38.36 -25.36,160.88 -105.04,231.59 -96.56,666.25 -7.43,904.82 11.63,31.16 77.61,145.15 100.52,161.94 -3.64,-43.81 -13.51,-97.56 -20.59,-148.74 -13.57,-98.12 -39.3,-374.94 20.59,-469.33l0 177.8c23.61,-27.15 81.76,-191.99 91.2,-222.06 90.6,-288.5 195.86,-598.2 131.12,-923.11 -38.59,-193.65 -204.99,-437.15 -373.99,-412.21 -61.2,9.03 -86.65,73.37 -127.36,109.95 -81.28,73.04 -94.03,-28.37 -120.26,-83.67 -12.7,-26.8 -50.19,-82.07 -72.49,-105.3 -55.42,-57.7 -134.96,-113.77 -210.33,-145.28 -283.19,-118.39 -348.38,42.82 -517.04,99.94 -54.89,18.59 -64.84,31.78 -90.57,78.75 -171.49,313.02 -21.84,423.25 10.34,715.32 11.33,102.9 -56.79,166.05 -66.81,286.54 97.48,65.28 62.94,60.04 100.22,289.24 17.57,108 62.73,231.96 196.11,167.96 121.46,229.56 296.96,342.92 118.64,685.91 -17.69,34.03 -39.83,67.56 -59.85,101.02 -20.43,34.15 -38.55,63.23 -62.18,98.68 -82.67,124 -185.89,247.87 -290.83,352.64 -55.42,55.33 -109.45,101.26 -140.09,181.64 -32.05,84.09 -22.89,187.44 -22.89,298.84 32,-21.43 26.16,-32.75 50.8,-50.8z"/>
   <path class="fil2 str0" d="M2372.75 2054.13c127.99,72.54 35.75,128.02 119.12,372.06 62.1,181.78 180.78,32.97 315.46,7.54l-130.02 87.03c-0.8,0.81 -2.65,2.83 -3.86,4.33 235.78,370.91 269.37,452.74 -2.22,871.04 -277.62,427.56 -502.17,415.53 -461.83,786.48 63.87,-89.15 57.11,-145.57 148.06,-193.6 -29.25,101.9 -110.62,222.42 -153.56,328.09 -56.11,138.08 -70.31,225.67 -147.26,341.28 40.5,-184.45 95.64,-243.82 0.33,-442.64 -56.95,-118.8 -129.88,-227.15 -195.67,-346.05 -59.21,-107 -120.68,-255.91 -169.41,-372.88 -11.14,-26.73 -46.8,-197.63 -41.48,-225.14 7.34,-37.87 80.34,-75.26 123.81,-154.64 103.53,-189.06 39.72,-505.26 -146.09,-563.82 -79.82,-25.16 -164.62,13.29 -200.93,55.92 -11.81,13.86 -86.48,151.48 -95.47,175.45 -16.59,44.23 -13.3,220.01 6.44,253.66 112.29,191.46 132.12,147.81 164.41,385.23 40.41,297.18 87.17,640.24 170.08,914.4 40.44,133.72 93.55,269.81 140.86,400.7 37.28,103.11 104.3,335.4 174.16,376.72 113.94,67.39 284.44,-136.72 329.6,-176.58 53.52,-47.25 86.46,-75.71 137.85,-133.06l285.95 -264.45c50,-46.08 83.26,-82.33 134.73,-136.05 79.07,-82.5 153.27,-211.06 197.26,-357.3l-338 9.74c95.81,-52.99 174.29,-42.89 284.17,-57.99 82.53,-11.34 197.12,-89.59 250.84,-92.14 -62.08,86.47 -282.39,363.27 -300.85,494.85 117.27,1.01 130.12,-31.87 221.5,-49.16l-74.04 55.53c-29.24,15.29 -60.57,23.92 -96.64,30.7 -159,29.88 -138.68,45.39 -304.64,203.15l-126.07 127.81c-80.03,86.79 -177.58,161.63 -261.26,246.99 -28.77,29.34 -21.04,45.84 -10.32,97.12 29.78,142.57 70.27,168.06 120.85,272.36 -110.57,146.87 43.87,321.94 10.08,547.32 -13.94,93.01 -18.63,90.95 26.97,153.51 -91.38,10.97 -73.64,-4.53 -94.61,99.58 -36.29,180.13 -54.03,376.41 -59.67,560.41 285.67,-47.63 387.47,88.98 652.04,234.79 164.65,90.74 549.09,184.94 733.45,75.2 80.95,-143.79 -41.28,-510.91 -90.71,-650.4 -57.56,-162.47 -122.2,-251.04 -224.32,-368.17 -32.7,-37.5 -57.43,-71.23 -92.98,-108.45 -30.02,12 -88,60.96 -118.61,82.7 -38.1,27.05 -75.61,57.4 -127.26,76.34 25.61,-26.47 55.66,-41.22 80.96,-63.55 19.93,-17.6 55.51,-53.76 69.51,-74.11 56.22,-81.71 30.61,-139.19 10.72,-235.05 -42.17,-203.22 -20.76,-346.35 -18.56,-548.61 -177.39,-20.98 -305.13,-85.2 -479.96,-98.96 171.61,-5.38 345.73,30.08 515.57,46.52l6.43 340.03c70.31,-16.74 119.75,-75.44 176.1,-131.8 48.16,-48.16 186.15,-231.33 206.33,-318.66 42.2,-182.67 -6.94,-571.56 -21.85,-772.64 -13.28,11.58 -6.11,1.89 -18.21,20.9l-32.97 85.85c-40.07,119.93 -281.04,745.99 -299,765.5 -16.37,-23.82 1.66,-44.09 19.14,-96.97 69.47,-210.07 197.69,-583.52 246.63,-760.68 316.83,-1146.93 -279.84,-1449.6 -303.3,-1823.46 -16.42,-261.66 158.19,-429.7 175.29,-692.94l5.34 -205.41c0.62,-6.43 2.89,-25.19 4.33,-30.9l13.44 -29.21c61.62,33.98 30.65,46.32 67.81,86.07 145.58,155.76 148.78,59.55 170.79,315.7 44.56,-88.12 -3.52,-207.25 -9.57,-299.81 65.17,102.1 76.76,234.91 34.35,357.34 -43.04,124.23 -88.07,183.35 -112.92,336.66 -30.97,191.13 -7.93,630.78 101.8,752.46 2.54,-109.41 -31.04,-227.4 -22.84,-353.34 5.79,-88.86 39.89,-238.61 83.81,-298.09l13.56 159.65c38.22,-72.09 125.95,-386.03 139.87,-453.06 37.92,-182.55 62.32,-385.33 20.4,-573.12 -35.66,-159.78 -147.88,-309.47 -264.13,-362.24 -107.45,-48.77 -138.38,25.78 -197.46,87.57 -107.72,112.66 -123.95,-29.42 -160.2,-94.1 -95.89,-171.07 -359,-360.79 -613.55,-214.03l-207.56 114.24c-39.3,41.44 -84.4,146.65 -98.85,214.57 -22.35,105.05 5.32,190.63 28.66,285.87 20.11,82.08 50.01,171.6 53.18,260.49 3.63,101.89 -53.4,160.11 -63.33,265.81z"/>
   <path class="fil1 str0" d="M6837.92 3905.19c192.74,-0.66 221.4,-27.74 347.14,-100.86l33.86 -26.18c-18.45,79.22 -50.8,156.73 -50.8,254 77.34,-18.02 196,4.78 332.95,-107.32 65.28,-53.43 107.93,-103.22 151.48,-178.72 14.78,-25.63 20.67,-47.22 34.83,-75.24 51.57,-102.08 71.63,-214.54 110.57,-329.69 8.09,-23.93 11.95,-48.88 13.64,-74.97l0 -127.91 0 -3.61c0.03,-129.99 -31.57,-254.78 -68.71,-371.56 -8.58,-26.97 -16.67,-52.55 -30.02,-80.04 -109.13,-224.62 -92.25,-146.3 -228.99,-321.35l-131.89 -198.31c-84.93,-99.57 -179.81,-200.42 -316.04,-242.76 -257.39,-80.01 -457.35,46.22 -614.99,221.31 -57.93,64.35 -122.91,200.94 -155.22,285.05 -43.43,113.08 -63.51,226.34 -78.51,361.76 -37.2,335.88 87.03,775.46 338.62,979.72 88.64,71.96 188.35,126.11 312.08,136.68z"/>
   <path class="fil0 str0" d="M7261.23 3726.94c-36.54,95.57 -56.98,167.13 -73.62,278.36 267.12,20.96 431.74,-193.28 513.26,-413.99 44.26,-119.84 87.74,-242.52 87.46,-380.42 -0.43,-215.55 4.79,-208.56 -55.62,-412.2 -87.44,-294.72 -184.19,-287.37 -360.9,-570.33 -300.41,-481.02 -858.15,-384.74 -1074.43,171.02 -95.07,244.3 -123.58,527.38 -62.05,805.08 83.06,374.81 332.61,720.03 710.34,678.4 193.74,-21.35 224.49,-117.6 315.56,-155.92z"/>
   <path class="fil2" d="M2414.35 5882.37c6.23,-69.17 -32.85,-247.24 -63.75,-301.03l-57.88 36.53c-1.58,1.37 -3.62,3.3 -5.04,4.58l5.73 233.88c-19.9,-14.59 -17.87,-145.83 -71.92,-230.26 -143.84,-224.68 -460.62,-74.78 -410.42,275.08 12.34,86 38.52,157 85.16,210.81 40.22,46.4 118.56,103.31 209.97,63.68 74.18,-32.16 99.22,-80.54 136.39,-160.41 47.51,-102.07 56.22,-98.59 171.76,-132.86z"/>
   <path class="fil1 str0" d="M7186.24 3521.96c-124,42.13 -259.23,163.1 -434.44,96.56 -102.22,-38.81 -234.94,-187.21 -286.61,-280.43 -141.97,-256.18 -134.85,-663.27 13.66,-909.8 172.92,-287.04 483.55,-344.09 710.46,-68.47 172.03,208.97 218.41,518.54 162.37,788.72l-18.86 96.68c1.21,16.71 -0.92,7.22 4.64,18.4l14.24 -21.29c43.91,-101.12 67.21,-393.37 48.98,-518.16 -24.71,-169.11 -97.43,-341.67 -186.73,-439.63 -110.03,-120.72 -250.91,-213.83 -439.22,-177.78 -165.5,31.68 -279.91,162.4 -348.03,278.29 -358.84,610.53 74.49,1499.15 581.76,1284 64.53,-27.37 156.89,-101.23 177.78,-147.09z"/>
   <path class="fil1 str0" d="M7117 3230.08c-71.31,47.66 -136.72,131.99 -270.41,136.79 -425.12,15.25 -496.13,-868.63 -87.04,-987.76 242.74,-70.69 381.08,185.45 408.42,392.07 8.58,64.91 11.59,126.76 8.92,194.44 -2.16,54.85 -19.27,143.2 -13.43,191.13 42.48,-131.5 79.11,-227.13 58.37,-388.97 -69.03,-538.79 -531.32,-610.76 -710.04,-255.34 -208.13,413.94 4.24,948.1 334.97,921.63 125.88,-10.08 237.4,-112.91 270.24,-203.99z"/>
   <path class="fil1 str0" d="M6707.1 2648.26c-66.3,15.7 -68.78,0.09 -110.19,46.16 -1.26,72.12 24.29,107.35 21.14,160.62 -2.92,49.17 -22.77,82.87 -25.1,154.67l121.64 42.86c18.74,52.13 21.46,64.31 64.07,86.66 35.28,-25.8 43.24,-48.16 66.25,-82.29 27.52,-40.82 58.89,-30.41 115.14,-45.66 18.23,-118.08 -50.4,-93.94 -7.91,-228.29 41.2,-130.3 -47.56,-122.02 -105.24,-121.81 -5.63,-47.88 -18.74,-102.84 -61.39,-111.39 -57.08,-11.45 -63.71,51.86 -78.41,98.47z"/>
   <path class="fil1" d="M1556.17 2676.32c-250.47,85.25 -148.27,502.14 45.09,462.21 214.1,-44.22 161.03,-532.37 -45.09,-462.21z"/>
   <path class="fil1" d="M2010.93 5629.6c-95.95,31.58 -137.12,128.17 -124.85,256.36 9.65,100.8 73.59,213.52 188.7,181.74 203.99,-56.33 138.99,-504.86 -63.85,-438.1z"/>
   <path class="fil0" d="M1563.24 2691.85c-216.67,66.88 -150.87,446.97 25.47,429.56 196.14,-19.37 160.13,-486.85 -25.47,-429.56z"/>
   <path class="fil3 str0" d="M7089.78 3591.96c-142.83,41.3 -233.28,112.67 -391.77,21.27 -77.45,-44.67 -195.71,-175.56 -243.37,-256.09 -282.47,-477.34 1.03,-1366.31 539.6,-1166.45 131.11,48.65 198.7,133.29 264.73,235.15 31.95,49.3 57.56,103.89 79.95,165.67 28.07,77.47 36.53,125.66 46.36,210.58 -13.18,-443.75 -376.58,-874.38 -787.06,-592.86 -90.55,62.1 -174.2,207.79 -215.24,309.59 -153.47,380.64 -41.25,950.67 309.21,1125.29 143.64,71.56 300.34,40.11 397.59,-52.15z"/>
   <path class="fil0" d="M2018.7 5645.71c-186.77,56.6 -135.18,447.68 47.39,404.88 183.53,-43.03 130.69,-458.85 -47.39,-404.88z"/>
   <path class="fil1" d="M1513.29 3074.06l124.19 7.76c66.25,-103.07 123.02,-342.28 -57.31,-347.17 -83.82,-2.27 -130.06,57.72 -132.43,137.83 -2.23,75.33 38.5,147.85 65.55,201.58z"/>
   <path class="fil1" d="M2008.34 5683.03c-158.61,61.79 -85.5,396.65 71.01,330.35 143.97,-60.99 92.03,-393.86 -71.01,-330.35z"/>
   <path class="fil3 str0" d="M7021.02 3330.27c-92.11,40.49 -169.35,82.74 -287.71,36.35 -249.9,-97.95 -338.63,-519.86 -204.78,-795.08 42.41,-87.2 94.46,-149.59 181.16,-192.11 102.49,-50.27 202.5,-32.23 285.25,22.41 28.93,19.11 27.28,23.01 50.25,42.97 133.72,116.24 145.98,358.63 152.28,512.77 88.93,-536.85 -431.76,-919.91 -682.8,-408.45 -241.99,493.04 181.16,1103.46 506.35,781.14z"/>
   <path class="fil0" d="M1529.33 3056.55l93.13 5.02 24.31 -38.77c52.54,-103.43 66.84,-256.24 -59.12,-269.11 -146.35,-14.95 -150.39,179.63 -58.32,302.86z"/>
   <path class="fil0" d="M2019.4 5697.21c-133.08,38.77 -91.02,353.76 51.44,299.35 119.05,-45.47 89.56,-340.43 -51.44,-299.35z"/>
  </g>
 </g>
</svg>
