<?xml version="1.0" encoding="UTF-8"?>
<!DOCTYPE svg PUBLIC "-//W3C//DTD SVG 1.1//EN" "http://www.w3.org/Graphics/SVG/1.1/DTD/svg11.dtd">
<!-- Creator: CorelDRAW -->
<svg xmlns="http://www.w3.org/2000/svg" xml:space="preserve" width="84.6666mm" height="84.6666mm" version="1.1" style="shape-rendering:geometricPrecision; text-rendering:geometricPrecision; image-rendering:optimizeQuality; fill-rule:evenodd; clip-rule:evenodd"
viewBox="0 0 8466.66 8466.66"
 xmlns:xlink="http://www.w3.org/1999/xlink"
 xmlns:xodm="http://www.corel.com/coreldraw/odm/2003">
 <defs>
  <style type="text/css">
   <![CDATA[
    .str0 {stroke:white;stroke-width:16.93;stroke-miterlimit:22.9256}
    .fil4 {fill:black}
    .fil0 {fill:#010101}
    .fil2 {fill:#DADADA}
    .fil1 {fill:red}
    .fil3 {fill:white}
   ]]>
  </style>
 </defs>
 <g id="Camada_x0020_1">
  <metadata id="CorelCorpID_0Corel-Layer"/>
  <path class="fil0" d="M4913.55 1312.31l-234.51 0 -72.74 59c-31.52,28.69 -35.92,41.81 -56.44,67.74 -91.86,116.14 -204.01,26.69 -296.12,470.32 -34.07,164.05 -38.09,342.29 -68.03,497.63 -20.29,105.35 -61.96,120.94 -59.31,196.74 1.33,37.82 16.63,63.77 30.98,90.9l50.86 100.34c-96.29,30.26 -139.01,106.82 -181.16,209.64 -11.18,-50.67 4.51,-74.27 -14.34,-126.03 -151.26,-9.27 -230.23,176.85 -233.17,275.81 -0.1,2.97 1.15,10.39 1.15,13.06l1.32 28.87c-11.57,51.47 -32.74,-10.36 -46.06,171.29l-11.96 -40.37c-33.62,-85.63 0.34,-41.88 -44.78,-74.19 -64.05,97.2 -104.77,173.86 -113.24,377.25 -20.37,489.36 -143.83,583.41 -46.23,1458.05 113.52,1017.12 449.96,1038.21 187.69,1554.12 118.55,-57.68 155.04,-139.75 320.73,-141.25 -104.38,45.11 -297.27,143.75 -364.04,239 -84.15,120.09 -121.72,417.88 -105.64,626.22 79.64,75.01 263.43,138.69 373.38,157.43 37.31,-94.13 96.42,-178.55 172.61,-244.41 -21.29,57.82 -2.88,13.86 -24.82,54.88 -3.35,6.24 -13.9,23.66 -17.49,29.37 -12.78,20.21 -21,27.98 -35.41,48.2 -31.9,44.75 -46.97,65.21 -73.38,132.09 406.69,63.18 591.28,101.32 1018.85,51.88 -47.84,-375.69 -162.47,-375.54 -253.27,-556.92 132.58,95.63 255.61,270.6 290.03,542.88 113.29,-16.47 176.23,-26.45 150.66,-238.82 -15,-124.47 -87.33,-151.58 -133.6,-241.94 -130.83,-255.54 -18.98,-165.82 -250.96,-478.12l173.89 177.44c-1.9,-257.54 41.76,-289 -33.98,-509.93 -48.48,-141.39 4.37,-161.49 -22.45,-267.46 -28.84,-113.99 -56.46,-36.07 -117.2,10.8 50.66,-218.78 144.36,-83.42 153.28,-437.63 -238.08,-167.4 -90.41,-452.48 -505.33,-451.98 82.99,-45.7 183.49,-23.1 279.94,-10.71 77.95,147.1 73.42,228.96 178.53,357.44 366.79,448.31 697.31,-76.66 1031.44,151.34 -125.75,0.88 -172.61,-85.46 -298.58,-28.66 -23.19,10.44 -235.49,124.88 -244.51,133.41 117.99,257.46 410.71,279.17 541.78,326.58 78.72,28.45 123.54,80.36 185.08,108.37 160.73,73.16 240.1,-145.27 284.59,-308.03 69.19,-253.13 160.28,-243.97 215.63,-388.13 -66.92,200.86 -79.17,98.87 -179.34,458.87 143.1,-112.79 243.78,-75.1 321.68,-600.5 76.99,-519.17 125.16,-554.19 171.14,-855.22 -444.49,177.76 -374.52,24.84 -482.27,284.46l-13.53 -95.16c-64.9,90.81 -184.56,130.54 -270.21,205.78 -123.07,108.14 -63.2,236.56 -50.02,398.87 -136.36,-258.54 12.51,-456.25 -133.03,-701.14 -78.68,-132.39 -396.79,-236.35 -506.9,-121.65 -53.21,63.45 -29.66,128.21 -45.37,237.91 -7.45,51.97 -4.23,37.2 -15.98,65.36 -48.87,-393.81 102.11,-516.81 -135.57,-787.12 -151.13,-171.94 -360.91,-189.57 -577.62,-193.84l119.22 -73.71c2.49,-8.89 9.47,-5.85 13.51,-10.33 -48.48,-36.16 -87.28,-81.8 -116.2,-154.49 62.62,-18.86 52.95,-2.64 96.75,-64.06l-18.25 -26.19c-2.43,-3.14 -6.61,-8.97 -9.33,-12.36 -44.41,-54.82 -72.13,-60.7 -103.92,-142.51 84.31,57.27 217.52,212.84 320.86,229.29 210.39,33.46 175.93,-257.36 215.94,-358.14 36.18,-91.17 27.18,-8.27 73.84,-69.45 84.52,-110.82 -52.92,-219.52 15.29,-421.89 30.06,-89.16 60.37,-74.21 79.25,-209.07 13.53,-96.61 15.92,-220.37 19.61,-319.92 -93.88,30.28 -190.87,37.93 -271.98,-16.31 193.22,8.21 304.43,38.64 363.09,-223.05 -22.33,-97.22 -65.57,-129.21 -123.48,-191.3 -57.94,-62.12 -69.7,-116.08 -118.46,-176.91 -184.26,-229.7 -201.83,-151.51 -322.39,-229.73z"/>
  <path class="fil1 str0" d="M1255.87 3377.86c188.05,-109.08 277.84,318.66 106.86,419.56 -181.93,107.35 -337.99,-285.49 -106.86,-419.56zm-215.35 99.05l0 225.49c172.97,280.47 145.42,167.82 187.3,479.71 26.72,199.01 59.44,395.64 96.95,581.38 66.47,329.04 82.11,296.06 148.48,509.22l161.42 439.72c130.63,316.1 431.98,-130.01 651.77,-312.1 113.32,-93.84 367.91,-329.75 437.23,-465.32 32.65,-63.91 60.41,-147.86 88.13,-212.57l-321.71 9.97c77.66,-35.6 178.84,-31.83 273.88,-42.1 103.52,-11.19 115.79,-69.83 214.25,-90.61 -94.89,125.24 -251.29,322.87 -301.31,494.78 108.96,6.15 116.25,-10.07 209.61,-41.7 -113.89,88.31 -196.98,48.64 -275.42,95.34l-588.96 574.02c11.32,162.58 83.19,272.58 132.5,348.79 -29.05,26.28 -43.15,58.09 -40.88,146.72 1.83,72.36 21.28,118.82 39.16,193.42 56.78,236.94 -50.33,263.98 31.7,354.41 -73.21,2.38 -59.99,-20.42 -88.93,105.05 -35.94,155.81 -54.84,409.17 -60.25,573.9 276.68,-83.69 440.51,127.04 670.37,237.39 199.07,95.57 532.98,174.08 738.1,64.23 62.09,-202.51 -46.68,-543.03 -109.74,-696.75 -95.52,-232.8 -181.73,-286.73 -309.91,-450.61l-181.01 132.27c32.69,-17.92 91.84,-83.95 109.97,-121.73 37.49,-78.16 11.61,-117.3 -8.8,-216.7 -38,-184.97 -30.02,-351.17 -14.78,-547.98 -143.95,0.8 -291.27,-80.42 -359.56,-81.66l376.62 44.97 6.41 344.99c105.87,-1.2 344.46,-317.04 384.4,-408.55 67.19,-153.93 3.98,-643.76 -9.59,-857.31 -36.94,19.98 -67.72,151.19 -92.19,213.31l-267.78 688.43 276.9 -849.98c325.15,-1081.71 -264.49,-1492.71 -301.66,-1813.54 -29.83,-257.51 150.24,-422.04 174.28,-691.29 6.78,-76.03 -5.08,-212.98 13.97,-275.96 97.88,62.56 -42.85,9.89 159.7,169.73 108.15,85.34 47.64,174.21 80.52,284.47 28.57,-122.3 36.21,-172.23 8.9,-298.88 148.66,383.39 -217.43,294.55 -94.09,1141.68 23.02,158.25 64,207.25 116.62,291.29 -36.12,-276.08 -69.07,-421.06 35.19,-670.18l-6.9 227.23c164.4,-405.76 390.18,-1112.67 20.27,-1431.42 -237.47,-204.6 -267.62,51.29 -337.5,62.15 -97.52,15.18 -60.48,-91.6 -154.61,-199.28 -38.69,-44.28 -126.6,-117.58 -190.91,-148.19 -230.57,-109.64 -320.5,-41.81 -466.1,51.03 -100.69,64.18 -109.87,-2.83 -186.28,154.43 -82.11,169.02 -60.64,274.25 -19.66,415.56 120.42,415.26 13.37,318.74 -11.63,524.84 105.74,110.62 54.06,-15.3 84.02,204.78 54.44,399.76 159.28,257.42 311.56,203.96l-99.56 60.91c3.02,5.27 7.7,11.27 9.98,14.59l29.09 41.82c25.39,37.72 8.3,9.65 33.61,53.47 18.7,32.34 30.29,52.26 54.6,94.72 129.4,225.94 55.17,367.98 -24.49,509.93 -384.77,685.63 -596.69,492.51 -558.89,982.19 77.01,-95.9 60.21,-152.6 142.12,-209.22 -49.4,117.29 -94.75,184.44 -147.22,307.59 -52.15,122.33 -59.45,204.69 -114.99,293.88 130.42,-369.47 -114.81,-455.1 -322.44,-978.8 -95.37,-240.56 -44.51,-28.93 -102.88,-359.03 69.31,-73.89 140.17,-122.07 168.09,-266.52 56.01,-289.82 -141.36,-549.15 -343.09,-443.95 -101.52,52.9 -97.86,138.39 -163.95,234.17z"/>
  <path class="fil0 str0" d="M6676.68 3687.93c-54.09,18.3 -63.58,-7.95 -108.58,34.93 -43.33,41.22 6.45,35.1 -67.01,91.01 -127.74,-93.72 59.68,-51.73 -174.2,-127.65 2.15,-141.1 24.21,-64.03 25.23,-158.23 0.88,-81.62 -23.82,-22.24 -22.51,-147.8 58.47,-55.06 48.37,-17.66 109.46,-38.85 21.26,-53.26 18.04,-117.53 72.96,-98.1 41.03,14.5 38.21,56.61 53.21,114.05 67.74,-1.03 55.86,-21.66 108.03,22.9 5.98,158.46 -23.1,44.19 -22.78,149.01 0.29,98.02 24.64,-7.15 26.19,158.73zm133.64 262.42c-127.23,204.51 -374.21,214.99 -522.86,12.51 -234,-318.81 -122.93,-870.14 178.73,-964.72 329.58,-103.34 575.28,385.17 434.1,777.6 100.07,-783.48 -452.9,-912.04 -639.95,-519.7 -211.43,443.42 134.07,1060.76 549.98,694.31zm70.95 278.76c-211.63,231.91 -506.43,189.83 -710.84,-123.98 -240.14,-368.65 -159.99,-981.54 145.36,-1218.31 252.96,-196.12 567.3,-74.06 718.17,249.39 133.64,286.5 99.19,545.54 26.59,810.05 100.01,-371.71 44.74,-718.27 -182.96,-958.15 -90.55,-95.4 -241.95,-155.4 -375.46,-126.65 -441.03,94.96 -537.29,867.81 -300.57,1200.12 231.51,325.02 392.19,323.37 679.71,167.53zm639.36 -237.44l0 -300.92c-31.45,-80.77 -41.23,-190.21 -82.15,-291.67 -112.44,-278.76 -134.01,-167.97 -300.09,-439.63 -167.62,-274.2 -390.23,-425.04 -669.01,-346.73 -516.01,144.92 -724.76,1034.3 -388.36,1622.1 152.09,265.74 399.07,391.34 662.44,328.01 110.23,-26.51 133.38,-74.36 225.84,-134.77 -31.29,61.44 -54.74,177.35 -69.13,273.16 500.29,4.24 555.78,-539.12 620.46,-709.55z"/>
  <path class="fil1 str0" d="M1710.27 6331.68c209.84,-108.79 278.8,333.43 101.91,405.34 -201.04,81.72 -266.35,-320.07 -101.91,-405.34zm291.01 107.37c-68.64,-411.49 -581.36,-276.9 -463.78,211.43 37.66,156.34 172.28,290.65 322.81,204.16 65.76,-37.78 89.49,-101.55 123.33,-171.14 36.01,-74.04 18.92,-64.83 167.57,-112.62 -5.76,-81.15 -36.43,-265.48 -73.31,-325.51l-86.71 63.32 10.09 130.36z"/>
  <path class="fil2 str0" d="M6881.27 4229.11c-287.52,155.84 -448.2,157.49 -679.71,-167.53 -236.72,-332.31 -140.46,-1105.16 300.57,-1200.12 133.51,-28.75 284.91,31.25 375.46,126.65 227.7,239.88 282.97,586.44 182.96,958.15 72.6,-264.51 107.05,-523.55 -26.59,-810.05 -150.87,-323.45 -465.21,-445.51 -718.17,-249.39 -305.35,236.77 -385.5,849.66 -145.36,1218.31 204.41,313.81 499.21,355.89 710.84,123.98z"/>
  <path class="fil3 str0" d="M6439.07 3341.34c-61.09,21.19 -50.99,-16.21 -109.46,38.85 -1.31,125.56 23.39,66.18 22.51,147.8 -1.02,94.2 -23.08,17.13 -25.23,158.23 233.88,75.92 46.46,33.93 174.2,127.65 73.46,-55.91 23.68,-49.79 67.01,-91.01 45,-42.88 54.49,-16.63 108.58,-34.93 -1.55,-165.88 -25.9,-60.71 -26.19,-158.73 -0.32,-104.82 28.76,9.45 22.78,-149.01 -52.17,-44.56 -40.29,-23.93 -108.03,-22.9 -15,-57.44 -12.18,-99.55 -53.21,-114.05 -54.92,-19.43 -51.7,44.84 -72.96,98.1z"/>
  <path class="fil2 str0" d="M6810.32 3950.35c-415.91,366.45 -761.41,-250.89 -549.98,-694.31 187.05,-392.34 740.02,-263.78 639.95,519.7 141.18,-392.43 -104.52,-880.94 -434.1,-777.6 -301.66,94.58 -412.73,645.91 -178.73,964.72 148.65,202.48 395.63,192 522.86,-12.51z"/>
  <path class="fil4 str0" d="M1243.27 3749.99l113.54 6.97c261.76,-442.89 -375.89,-438.42 -113.54,-6.97z"/>
  <path class="fil4 str0" d="M1655.53 6569.21c22.27,190.35 247.66,168.84 220.9,-74.69 -20.53,-186.77 -250.25,-176.32 -220.9,74.69z"/>
  <path class="fil4 str0" d="M1243.27 3749.99c-262.35,-431.45 375.3,-435.92 113.54,6.97l-113.54 -6.97zm12.6 -372.13c-231.13,134.07 -75.07,526.91 106.86,419.56 170.98,-100.9 81.19,-528.64 -106.86,-419.56z"/>
  <path class="fil4 str0" d="M1655.53 6569.21c-29.35,-251.01 200.37,-261.46 220.9,-74.69 26.76,243.53 -198.63,265.04 -220.9,74.69zm54.74 -237.53c-164.44,85.27 -99.13,487.06 101.91,405.34 176.89,-71.91 107.93,-514.13 -101.91,-405.34z"/>
 </g>
</svg>
