<?xml version="1.0" encoding="UTF-8"?>
<!DOCTYPE svg PUBLIC "-//W3C//DTD SVG 1.1//EN" "http://www.w3.org/Graphics/SVG/1.1/DTD/svg11.dtd">
<!-- Creator: CorelDRAW -->
<svg xmlns="http://www.w3.org/2000/svg" xml:space="preserve" width="8.4666mm" height="8.4666mm" version="1.1" style="shape-rendering:geometricPrecision; text-rendering:geometricPrecision; image-rendering:optimizeQuality; fill-rule:evenodd; clip-rule:evenodd"
viewBox="0 0 846.66 846.66"
 xmlns:xlink="http://www.w3.org/1999/xlink"
 xmlns:xodm="http://www.corel.com/coreldraw/odm/2003">
 <defs>
  <style type="text/css">
   <![CDATA[
    .fil0 {fill:#020202}
   ]]>
  </style>
 </defs>
 <g id="Camada_x0020_1">
  <metadata id="CorelCorpID_0Corel-Layer"/>
  <path class="fil0" d="M125.87 740.9c3.3,2.7 5.19,8.33 6.78,12.86 0.97,2.76 1.15,4.55 2.28,7.17 1.79,4.18 2.22,2.04 2.96,6.22l5.05 4.12c2.04,1.89 2.67,2.73 4.25,4.16 18.55,16.79 50.76,2.91 33.1,-7.67 -1.34,-0.8 -2.29,-0.97 -4.03,-1.97 -3.79,-2.17 -1.63,-0.53 -3.73,-2.84 -3.83,-0.34 -4.6,-0.44 -7.2,-3.08l1.43 -5.64c0.12,-0.27 0.33,-0.55 0.45,-0.81 3.41,-7.3 -0.05,-7.68 1.79,-13.92 0.83,-2.79 -0.02,-1.05 1.44,-2.78 0.63,-2.84 5.12,-7.17 7.38,-10.73 -1.24,-9.48 -8.58,-11.47 -1.96,-23.19l12.57 -17.65c11.05,-16.04 9.77,-12.38 21.44,-22.13l15.84 -14.42c2.79,-2.63 4.45,-4.8 7.13,-7.36l14.37 -15.86c12.19,-15.19 22.5,-24.84 39.45,-34.38 2.87,-1.62 5.63,-4.09 8.37,-6.13 6.3,-4.67 27.48,-37.93 39.56,-49.96 8.43,-8.39 18.67,-24.34 25.02,-34.25 5.68,-8.85 16.2,-33.67 20.9,-38.55 18.38,1.27 31.85,1.95 50.8,0.91 12.3,-0.68 39.75,-1.48 49.2,3.07 -0.67,4.58 -15.43,19.91 -19.04,26.35 -5.33,9.49 -7.25,26.49 -12.23,33.72 -11.46,16.64 -15.08,26.97 -25.59,43.38 -3.79,5.92 -5.53,8.27 -13.35,10.72l-3.29 11.46c-6.63,-0.54 -5.86,0.24 -7.98,-5.92 -11.2,31.74 -33.59,29.04 -20.39,41.67 18.27,17.47 36.68,25.83 59.96,36.81 12.44,5.87 29.55,12.32 45.94,9.8 14.71,-13.63 -9.66,-16.89 -18.86,-23.68 -6.32,-4.67 -0.28,-2.21 -3.11,-7.73 -1.88,-3.64 -4.3,-2.79 -6.57,-6.69 -6.78,-11.65 -1.13,-19.43 -0.65,-21.42l-7.26 -3.08c-0.07,-6.14 1.32,-6.8 0.58,-13.2 -2.03,-17.7 32.15,-47.26 42.6,-59.12 10.58,-12 17.53,-19.16 26.1,-33.15 3.29,-5.38 8.53,-13.63 11.91,-17.13 5.81,-6.02 9.03,-9.57 13.89,-16.35 12.06,-16.82 11.4,-25.02 -4.68,-37.57 -10.69,-8.35 -20.05,-17.4 -33.52,-25.76 -6.36,-3.96 -11.74,-6.99 -20.08,-9.18 -24.17,-6.37 -15.15,-12.68 -69.26,-20.45 -0.91,-6.33 4.91,-18.01 6.97,-25.12 2.89,-9.97 8.69,-12.88 14.68,-19.26 17.63,-18.81 7,-7.27 11.54,-22.31 1.89,-6.25 8.18,-17.15 13.94,-19.53 6.8,1.73 5.74,4.89 10.13,8.8 2.69,2.4 7.98,6.14 11.81,8.76 4.3,2.94 7.02,4.31 12.15,7.21 8.29,4.71 27.44,23.47 36.96,-1.28 6.27,-16.27 14.74,-44.37 18.33,-61.5 2.37,-11.34 0.86,-24.41 3.23,-36.52 7.93,-40.62 -1.43,-27.37 -5.69,-49.21 -1.23,-6.34 -0.32,-12.41 -5.64,-14.27l-2.32 7.77c-3.55,-5.92 -3.44,-11.59 -7.34,-14.53 -6.32,-0.97 0.83,1.11 -3.95,0.85l-4.76 -2.15c-3.75,2.76 -4.92,1.56 -8.33,4.12 0.13,7.03 0.14,14.98 3.27,20.37 -1.67,1.4 0.03,0.24 -2.26,1.42 -0.94,0.49 -0.81,0.21 -2.61,1.19 1.36,16.08 -2.5,19.69 7.43,27.92 8.47,7.02 11.06,8.85 7.81,23.44 -1.79,8.03 -3.77,21.23 -6.55,28.41 -2.41,6.23 -9.87,15.53 -13.47,22.82 -6.45,-7.45 -10.73,-19.78 -21.07,-25.68 -6.15,-3.51 -5.6,-1.1 -8.53,-8.42 -10.78,-26.87 -17.2,-24.3 -31.42,-32.43 -1.46,-34.55 22.76,-9.5 25.76,-30.35 1.28,-8.94 2.11,-8.38 -0.58,-15.38 2.65,-2.31 2.27,-0.95 3.63,-2.18 3.37,-3.06 0.11,-0.19 2.33,-3.59 2.15,-3.3 3.3,-2.04 6.74,-5.17 -0.12,-5.99 -1.1,-5.85 -3.68,-10.49 -3.9,-6.99 -1.46,-6.87 -0.36,-11.84 1.77,-7.97 -4.32,-19.55 -5.18,-25.08 10.39,-1.09 16.11,-1.16 8.38,-12.99 -3.72,-5.69 -8.7,-9.64 -18.17,-11.03 -17.72,-2.59 -33.23,-8.3 -51.35,-0.45 -14.75,6.39 -18.34,22.8 -20.77,37.09 -3.24,19.11 5.29,18.22 10.59,32.26 2.19,5.81 -0.15,5.05 3.48,12.08 -15.75,-0.84 -26.17,-8.66 -44.04,-1.53 -13.36,5.34 -31.73,3.76 -46.79,5.31 -5.34,0.55 -17.41,1.8 -21.33,4.06 -6.56,3.79 1.13,3.19 -8.5,4.92 -25.07,4.52 -22.81,9.27 -41.76,24.6 -7.42,6.01 -19.53,17.85 -24.47,27.55 -25.76,50.47 -32.33,37.15 -45.23,59.98 -2.68,4.76 -16.56,24.44 -15.18,29.82l2.67 3.32c0.17,0.15 0.56,0.39 0.81,0.61 -2.99,6.85 -1.37,9.42 2.1,15.3l7.02 0.32c9.23,3.93 -4.97,-1.11 2.43,1.35 9.57,-5.58 17.73,-30.2 28.71,-30.22 -3.41,5.62 -8.61,10.58 -0.89,20.2 4.24,-3 2.64,-10.87 8.54,-16.51 7.37,-7.05 3.2,-12.18 4.18,-22.81 1.4,-15.15 12.11,-21.21 20.4,-31.27l12.32 -13.11c8.38,-8.6 20.66,-14.47 30.31,-21.72 5.67,-4.26 8.83,-8.93 13.77,-12.77 5.7,-2.37 6.17,3.51 24.19,2.55 3.89,-0.21 24.23,-3.46 24.57,0.6 1.12,13.22 -0.95,26.95 -1.66,40.35 -0.83,15.66 0.57,77.14 -2.93,86.51 -2.55,6.86 -3.97,9.79 -8.33,14.63 -5.79,6.43 -4.95,6.84 -4.26,16.42 -6.31,3.1 -13.44,8.5 -16.3,13.87 -9.74,18.33 -12.83,22.93 -5.08,49.61 4.3,14.81 2.3,12 -3.1,24.42 -4.13,9.47 -3.88,12.71 -9.88,20.38 -6.84,8.75 -7.44,7.48 -11.01,20.49 -0.96,3.49 -3.53,7.78 -4.71,10.9 -1.67,4.4 -2.16,8.33 -3.5,12.37 -1.96,5.92 -7.74,15.4 -10.98,20.4 -18.88,29.08 -32.55,24.21 -48.28,44.88 -6.34,8.32 -5.63,12.68 -10.4,21.04 -2.6,4.56 -4.48,3.57 -8.04,7.7 -2.4,2.79 -2.55,7.05 -4.58,11.04 -3.65,7.17 -21.79,27.01 -28.12,34.87 -6.88,8.55 -4.43,11.73 -20.02,11.35 -6.96,7.38 -2.33,4.96 -14.04,9.13 -7.67,2.72 -12.78,1.8 -18.98,3.79 -2.66,10.78 4.8,30.1 10.08,40.34 2.25,4.37 5.09,8.19 5.4,12.54z"/>
 </g>
</svg>
